
<svg
version="1.1"
id="Layer_1"
x="0px"
y="0px"
viewBox="0 0 389.5 321.29999"
xml:space="preserve"
sodipodi:docname="e4e80d8a0ab3fb915380e548eedda638.svg"
width="389.5"
height="321.29999"
xmlns:sodipodi="http://sodipodi.sourceforge.net/DTD/sodipodi-0.dtd"
xmlns="http://www.w3.org/2000/svg"
xmlns:svg="http://www.w3.org/2000/svg">
	<path fill="#ffffff" opacity="0.000000" stroke="none"
		d="
M264.000000,347.000000
	C176.000000,347.000000 88.500000,347.000000 1.000000,347.000000
	C1.000000,231.666672 1.000000,116.333336 1.000000,1.000000
	C150.000000,1.000000 299.000000,1.000000 448.000000,1.000000
	C448.000000,116.333336 448.000000,231.666672 448.000000,347.000000
	C386.833344,347.000000 325.666656,347.000000 264.000000,347.000000
M356.979858,97.062248
	C377.457123,90.559601 397.934418,84.056946 418.549255,77.510612
	C417.254150,76.999306 416.022186,76.042931 414.876007,76.136566
	C407.339355,76.752159 399.819824,77.581039 392.297394,78.365883
	C384.247528,79.205757 376.189606,79.984283 368.157227,80.969246
	C364.448212,81.424049 360.791534,82.306038 356.838654,82.323433
	C350.117676,78.544281 343.427704,74.708626 336.668274,70.999580
	C327.149628,65.776497 317.480377,60.820019 308.065979,55.417599
	C301.718140,51.774914 298.793762,51.623310 292.501587,55.959133
	C286.131958,60.348347 279.784393,64.771011 273.361908,69.081802
	C266.280273,73.835007 259.124359,78.477592 251.297028,83.189247
	C247.451660,85.109856 243.628998,87.077705 239.754852,88.938370
	C235.512299,90.975967 231.222214,92.914566 226.154007,94.995979
	C224.428879,94.149536 222.750549,93.185829 220.971130,92.475372
	C207.962479,87.281616 194.909515,82.198334 181.917358,76.963928
	C167.119965,71.002228 152.392502,64.866829 137.593079,58.910213
	C128.821640,55.379791 119.921402,52.167912 111.165466,48.600750
	C97.428955,43.004505 83.773384,37.209885 70.068527,31.535519
	C59.126877,27.005226 48.180782,22.484299 37.191200,18.072451
	C35.351673,17.333960 33.280472,17.172564 31.316319,16.744509
	C31.059587,17.156694 30.802858,17.568882 30.546127,17.981070
	C61.877102,59.884071 98.297813,97.387215 134.902588,136.551682
	C98.871002,146.031311 63.920120,155.226624 28.969234,164.421936
	C30.142279,166.061966 31.455608,166.712296 32.844028,166.998993
	C46.471119,169.812943 60.105148,172.594101 73.748253,175.329468
	C88.355263,178.258072 102.950577,181.253708 117.594643,183.986252
	C131.621231,186.603592 145.690872,188.998581 159.765793,191.346252
	C171.776184,193.349564 183.820923,195.146957 196.131714,197.734100
	C196.077347,200.424286 196.198059,203.131470 195.938950,205.801788
	C194.676575,218.812073 192.803055,231.786163 192.129425,244.823883
	C191.468445,257.616974 191.659210,270.483124 192.119019,283.294128
	C192.392578,290.916199 193.906097,298.493744 194.862167,306.091309
	C195.488403,306.162048 196.114639,306.232758 196.740891,306.303467
	C200.146591,296.947479 203.552307,287.591492 206.958023,278.235504
	C208.422852,287.389069 208.853699,296.238007 210.115356,304.966858
	C210.803253,309.726013 211.823517,315.101318 214.600098,318.746887
	C219.396667,325.044678 225.645187,330.245544 231.375961,335.812500
	C232.152771,336.567078 233.457428,336.778290 234.508362,337.237030
	C234.508362,322.937866 234.508362,309.246033 234.508362,295.847748
	C238.960449,308.764496 241.144485,322.905396 248.647049,336.208984
	C257.612274,328.906586 265.735229,322.215027 273.947174,315.634583
	C277.791962,312.553650 277.630554,309.512634 275.123169,305.492371
	C270.141968,297.505646 265.635254,289.222961 261.283966,280.672089
	C261.393219,280.535217 261.502472,280.398315 262.114746,280.713531
	C269.054352,286.637451 275.907288,292.667999 282.983856,298.423492
	C285.248138,300.265076 287.995789,301.466400 290.023773,297.570282
	C294.218140,289.512329 298.703186,281.600739 302.663910,273.432678
	C303.134308,272.462585 301.493683,269.515015 300.128662,268.767212
	C292.557617,264.619568 284.697510,261.003540 277.071411,256.951385
	C264.710175,250.383163 253.057098,242.815643 244.169830,231.329071
	C246.203964,229.964462 248.294235,228.675964 250.263458,227.223343
	C268.118408,214.052307 286.102600,201.048264 303.690460,187.528961
	C308.304688,183.982132 314.998627,181.875809 315.814606,174.566422
	C316.030792,172.629944 316.294983,170.693222 316.658691,168.779724
	C318.797119,157.528824 320.971527,146.284760 323.772522,134.794312
	C327.814240,129.390427 331.546417,123.716446 335.970795,118.646492
	C342.470032,111.198906 349.463898,104.182899 356.979858,97.062248
z"/>
	<path fill="#95DDFF" opacity="1.000000" stroke="none"
		d="
M195.850479,197.035431
	C183.820923,195.146957 171.776184,193.349564 159.765793,191.346252
	C145.690872,188.998581 131.621231,186.603592 117.594643,183.986252
	C102.950577,181.253708 88.355263,178.258072 73.748253,175.329468
	C60.105148,172.594101 46.471119,169.812943 32.844028,166.998993
	C31.455608,166.712296 30.142279,166.061966 28.969234,164.421936
	C63.920120,155.226624 98.871002,146.031311 134.902588,136.551682
	C98.297813,97.387215 61.877102,59.884071 30.546127,17.981070
	C30.802858,17.568882 31.059587,17.156694 31.316319,16.744509
	C33.280472,17.172564 35.351673,17.333960 37.191200,18.072451
	C48.180782,22.484299 59.126877,27.005226 70.068527,31.535519
	C83.773384,37.209885 97.428955,43.004505 111.165466,48.600750
	C119.921402,52.167912 128.821640,55.379791 137.593079,58.910213
	C152.392502,64.866829 167.119965,71.002228 181.917358,76.963928
	C194.909515,82.198334 207.962479,87.281616 220.971130,92.475372
	C222.750549,93.185829 224.428879,94.149536 226.709106,95.252792
	C235.737976,101.805771 244.136307,108.206963 252.709213,114.365097
	C259.644470,119.346840 266.789978,124.035919 273.883362,129.132996
	C273.935455,129.598328 273.946381,129.785492 273.665955,130.135437
	C264.068726,140.863937 254.772461,151.438156 245.454498,161.993210
	C233.939972,175.036453 222.407425,188.063797 210.503357,201.061127
	C206.113510,200.043777 202.102966,199.063324 197.879395,197.834991
	C197.061081,197.403229 196.455780,197.219330 195.850479,197.035431
M142.425507,133.822449
	C140.608353,134.780212 138.791183,135.737976 136.298538,137.051773
	C156.906693,157.118668 176.842026,176.530426 197.264755,196.416779
	C206.936539,162.496246 216.322525,129.578003 226.025406,95.548393
	C210.723755,102.640709 196.723068,109.191307 182.669342,115.626099
	C169.510086,121.651344 156.294693,127.553940 142.425507,133.822449
z"/>
	<path fill="#C6F9F1" opacity="1.000000" stroke="none"
		d="
M195.991089,197.384766
	C196.455780,197.219330 197.061081,197.403229 198.007797,198.160248
	C209.555969,227.593414 220.762695,256.453461 231.969437,285.313507
	C232.414948,285.209808 232.860458,285.106140 233.305954,285.002441
	C234.031525,268.426453 234.757095,251.850464 235.834000,235.115265
	C238.742325,233.974701 241.299316,232.993378 243.856323,232.012054
	C253.057098,242.815643 264.710175,250.383163 277.071411,256.951385
	C284.697510,261.003540 292.557617,264.619568 300.128662,268.767212
	C301.493683,269.515015 303.134308,272.462585 302.663910,273.432678
	C298.703186,281.600739 294.218140,289.512329 290.023773,297.570282
	C287.995789,301.466400 285.248138,300.265076 282.983856,298.423492
	C275.907288,292.667999 269.054352,286.637451 261.671326,280.269989
	C260.896698,279.681641 260.565430,279.536835 260.234192,279.392029
	C260.466949,279.948883 260.699707,280.505737 260.932465,281.062592
	C265.635254,289.222961 270.141968,297.505646 275.123169,305.492371
	C277.630554,309.512634 277.791962,312.553650 273.947174,315.634583
	C265.735229,322.215027 257.612274,328.906586 248.647049,336.208984
	C241.144485,322.905396 238.960449,308.764496 234.508362,295.847748
	C234.508362,309.246033 234.508362,322.937866 234.508362,337.237030
	C233.457428,336.778290 232.152771,336.567078 231.375961,335.812500
	C225.645187,330.245544 219.396667,325.044678 214.600098,318.746887
	C211.823517,315.101318 210.803253,309.726013 210.115356,304.966858
	C208.853699,296.238007 208.422852,287.389069 206.958023,278.235504
	C203.552307,287.591492 200.146591,296.947479 196.740891,306.303467
	C196.114639,306.232758 195.488403,306.162048 194.862167,306.091309
	C193.906097,298.493744 192.392578,290.916199 192.119019,283.294128
	C191.659210,270.483124 191.468445,257.616974 192.129425,244.823883
	C192.803055,231.786163 194.676575,218.812073 195.938950,205.801788
	C196.198059,203.131470 196.077347,200.424286 195.991089,197.384766
z"/>
	<path fill="#D9FDF8" opacity="1.000000" stroke="none"
		d="
M244.013077,231.670563
	C241.299316,232.993378 238.742325,233.974701 235.626068,234.872696
	C227.005432,223.558899 218.944046,212.328445 210.882660,201.098007
	C222.407425,188.063797 233.939972,175.036453 245.454498,161.993210
	C254.772461,151.438156 264.068726,140.863937 274.119690,130.144287
	C280.461823,130.458527 286.070801,130.816620 291.653442,131.418549
	C302.154938,132.550827 312.641205,133.823868 323.133820,135.038391
	C320.971527,146.284760 318.797119,157.528824 316.658691,168.779724
	C316.294983,170.693222 316.030792,172.629944 315.814606,174.566422
	C314.998627,181.875809 308.304688,183.982132 303.690460,187.528961
	C286.102600,201.048264 268.118408,214.052307 250.263458,227.223343
	C248.294235,228.675964 246.203964,229.964462 244.013077,231.670563
z"/>
	<path fill="#94DDFE" opacity="1.000000" stroke="none"
		d="
M252.000809,83.168365
	C259.124359,78.477592 266.280273,73.835007 273.361908,69.081802
	C279.784393,64.771011 286.131958,60.348347 292.501587,55.959133
	C298.793762,51.623310 301.718140,51.774914 308.065979,55.417599
	C317.480377,60.820019 327.149628,65.776497 336.668274,70.999580
	C343.427704,74.708626 350.117676,78.544281 356.586853,82.801285
	C344.051849,85.116730 331.768646,86.954323 319.359039,88.810829
	C318.703949,87.519585 318.198120,86.295868 317.502380,85.191826
	C314.976898,81.184204 311.404449,79.265961 306.584717,79.748596
	C301.689301,80.238808 297.561493,83.171310 297.347687,87.460587
	C296.988007,94.676147 291.973145,96.156013 287.191467,98.505852
	C283.915039,100.115974 280.629669,101.707916 276.979370,103.210495
	C272.666840,99.841003 268.753113,96.532181 264.771576,93.307068
	C260.548187,89.886070 256.260437,86.544571 252.000809,83.168365
z"/>
	<path fill="#C4F8F1" opacity="1.000000" stroke="none"
		d="
M323.453186,134.916351
	C312.641205,133.823868 302.154938,132.550827 291.653442,131.418549
	C286.070801,130.816620 280.461823,130.458527 274.411041,129.981506
	C273.946381,129.785492 273.935455,129.598328 273.930176,128.724548
	C275.035400,120.653442 276.134888,113.268967 277.607666,105.779259
	C284.446503,102.735825 290.912079,99.797623 297.244568,96.919891
	C305.905243,106.198380 311.435669,105.255249 320.084045,93.415253
	C322.247955,93.591377 324.404114,93.730904 326.552429,93.947891
	C336.451843,94.947784 346.349030,95.969284 356.247040,96.983025
	C349.463898,104.182899 342.470032,111.198906 335.970795,118.646492
	C331.546417,123.716446 327.814240,129.390427 323.453186,134.916351
z"/>
	<path fill="#11597F" opacity="1.000000" stroke="none"
		d="
M356.613464,97.022644
	C346.349030,95.969284 336.451843,94.947784 326.552429,93.947891
	C324.404114,93.730904 322.247955,93.591377 320.084045,93.415253
	C311.435669,105.255249 305.905243,106.198380 297.244568,96.919891
	C290.912079,99.797623 284.446503,102.735825 277.532410,105.345734
	C277.172028,104.447624 277.260162,103.877800 277.348297,103.307983
	C280.629669,101.707916 283.915039,100.115974 287.191467,98.505852
	C291.973145,96.156013 296.988007,94.676147 297.347687,87.460587
	C297.561493,83.171310 301.689301,80.238808 306.584717,79.748596
	C311.404449,79.265961 314.976898,81.184204 317.502380,85.191826
	C318.198120,86.295868 318.703949,87.519585 319.359039,88.810829
	C331.768646,86.954323 344.051849,85.116730 356.723083,83.136742
	C360.791534,82.306038 364.448212,81.424049 368.157227,80.969246
	C376.189606,79.984283 384.247528,79.205757 392.297394,78.365883
	C399.819824,77.581039 407.339355,76.752159 414.876007,76.136566
	C416.022186,76.042931 417.254150,76.999306 418.549255,77.510612
	C397.934418,84.056946 377.457123,90.559601 356.613464,97.022644
z"/>
	<path fill="#59B4F7" opacity="1.000000" stroke="none"
		d="
M276.979370,103.210495
	C277.260162,103.877800 277.172028,104.447624 277.159180,105.450974
	C276.134888,113.268967 275.035400,120.653442 273.889038,128.446365
	C266.789978,124.035919 259.644470,119.346840 252.709213,114.365097
	C244.136307,108.206963 235.737976,101.805771 227.108521,95.202957
	C231.222214,92.914566 235.512299,90.975967 239.754852,88.938370
	C243.628998,87.077705 247.451660,85.109856 251.648926,83.178802
	C256.260437,86.544571 260.548187,89.886070 264.771576,93.307068
	C268.753113,96.532181 272.666840,99.841003 276.979370,103.210495
z"/>
	<path fill="#58B3F7" opacity="1.000000" stroke="none"
		d="
M142.764755,133.666473
	C156.294693,127.553940 169.510086,121.651344 182.669342,115.626099
	C196.723068,109.191307 210.723755,102.640709 226.025406,95.548393
	C216.322525,129.578003 206.936539,162.496246 197.264755,196.416779
	C176.842026,176.530426 156.906693,157.118668 136.298538,137.051773
	C138.791183,135.737976 140.608353,134.780212 142.764755,133.666473
z"/>
	<path fill="#59B5F7" opacity="1.000000" stroke="none"
		d="
M210.503357,201.061127
	C218.944046,212.328445 227.005432,223.558899 235.274750,235.031921
	C234.757095,251.850464 234.031525,268.426453 233.305954,285.002441
	C232.860458,285.106140 232.414948,285.209808 231.969437,285.313507
	C220.762695,256.453461 209.555969,227.593414 198.220825,198.408112
	C202.102966,199.063324 206.113510,200.043777 210.503357,201.061127
z"/>
	<path fill="#000000" opacity="1.000000" stroke="none"
		d="
M261.108215,280.867340
	C260.699707,280.505737 260.466949,279.948883 260.234192,279.392029
	C260.565430,279.536835 260.896698,279.681641 261.419830,280.043945
	C261.502472,280.398315 261.393219,280.535217 261.108215,280.867340
z"/>
</svg>
